<svg width="101" height="60" viewBox="0 0 101 60" fill="none" xmlns="http://www.w3.org/2000/svg">
<rect width="100.5" height="60" fill="white"/>
<circle cx="45.75" cy="18" r="10.5" fill="#0295D8"/>
<circle cx="41.625" cy="19.875" r="10.125" fill="white"/>
<circle cx="30.75" cy="15.75" r="10.5" fill="#0295D8"/>
<circle cx="26.625" cy="17.625" r="10.125" fill="white"/>
<circle cx="39" cy="34.5" r="10.5" fill="#0295D8"/>
<circle cx="34.875" cy="36.375" r="10.125" fill="white"/>
<circle cx="23.25" cy="29.25" r="10.5" fill="#0295D8"/>
<circle cx="19.125" cy="31.125" r="10.125" fill="white"/>
<circle cx="30.75" cy="48" r="10.5" fill="#0295D8"/>
<circle cx="26.625" cy="49.875" r="10.125" fill="white"/>
<circle cx="14.25" cy="11.25" r="10.5" fill="#0295D8"/>
<circle cx="10.125" cy="13.125" r="10.125" fill="white"/>
<path d="M57.5398 45.2761H56.4961V50.4807C56.4961 51.1023 56.394 51.6404 56.1899 52.095C55.7539 53.0505 54.9097 53.5283 53.6572 53.5283C53.1284 53.5283 52.6831 53.4355 52.3213 53.25C51.8389 53.0088 51.5977 52.6748 51.5977 52.248C51.5977 52.1553 51.6116 52.0625 51.6394 51.9697C51.7507 51.645 51.9873 51.4827 52.3491 51.4827C52.5811 51.4827 52.7712 51.5291 52.9197 51.6218C53.1052 51.7517 53.2305 52.0347 53.2954 52.4707C53.314 52.582 53.3279 52.6655 53.3372 52.7212C53.4114 53.0181 53.5691 53.1665 53.8103 53.1665C53.9587 53.1665 54.0886 53.1108 54.2 52.9995C54.4319 52.7397 54.5479 51.928 54.5479 50.5642V45.2761H53.2954V44.9004H57.5398V45.2761ZM66.7522 53.25H63.0227V52.8743H64.0107L62.967 50.2024H60.1978L59.1958 52.8743H59.9751C60.0308 52.8743 60.0818 52.8789 60.1282 52.8882C60.2488 52.9067 60.3091 53.0273 60.3091 53.25H57.7485V52.8743H58.6392L61.6868 44.9004H62.7166L66.0007 52.8743H66.4182C66.4739 52.8743 66.5249 52.8789 66.5713 52.8882C66.6919 52.9067 66.7522 53.0273 66.7522 53.25ZM62.8 49.7849L61.5615 46.5842L60.3647 49.7849H62.8ZM73.9468 50.926C73.9468 51.5383 73.7288 52.0579 73.2927 52.4846C72.6619 53.0876 71.7573 53.3892 70.5791 53.3892C69.5679 53.3892 68.7051 53.1526 67.9907 52.6794C67.9907 52.8372 67.9814 52.9624 67.9629 53.0552C67.9165 53.2036 67.7681 53.2778 67.5176 53.2778V50.3276H68.0603C68.0974 50.8193 68.1995 51.2554 68.3665 51.6357C68.7654 52.5356 69.4565 52.9856 70.4399 52.9856C70.6997 52.9856 70.9363 52.9485 71.1497 52.8743C71.7434 52.6516 72.0403 52.2063 72.0403 51.5383C72.0403 51.3435 71.9985 51.1533 71.915 50.9678C71.7202 50.5781 71.2239 50.1746 70.426 49.7571C69.5354 49.3025 69.0344 49.0381 68.9231 48.9639C68.0417 48.4165 67.6011 47.7578 67.6011 46.9878C67.6011 46.4683 67.782 46.0183 68.1438 45.6379C68.7097 45.0535 69.554 44.7612 70.6765 44.7612C71.53 44.7612 72.3418 44.9421 73.1118 45.304C73.1118 45.2205 73.1165 45.1462 73.1257 45.0813C73.1721 44.905 73.3252 44.8169 73.585 44.8169V47.3357H73.0422C73.033 46.8347 72.9124 46.4033 72.6804 46.0415C72.3 45.4663 71.7295 45.1787 70.9688 45.1787C70.7739 45.1787 70.5884 45.2065 70.4121 45.2622C69.8833 45.4385 69.6189 45.8003 69.6189 46.3477C69.6189 46.561 69.6653 46.7651 69.7581 46.96C69.9529 47.3589 70.4399 47.7625 71.2192 48.1707C72.0728 48.6252 72.5598 48.885 72.6804 48.95C73.5247 49.4973 73.9468 50.156 73.9468 50.926ZM79.4575 44.7612C80.5059 44.7612 81.4197 45.0442 82.199 45.6101C83.2844 46.408 83.8271 47.5723 83.8271 49.103C83.8271 50.3647 83.3958 51.4038 82.533 52.2202C81.6887 52.9995 80.6497 53.3892 79.4158 53.3892C78.3303 53.3892 77.384 53.0784 76.5769 52.4568C75.5286 51.6404 75.0044 50.5039 75.0044 49.0474C75.0044 47.7764 75.4451 46.7373 76.3264 45.9302C77.1799 45.1509 78.2236 44.7612 79.4575 44.7612ZM79.4575 52.9856C79.8843 52.9856 80.2415 52.8928 80.5291 52.7073C81.2712 52.2341 81.6423 51.0095 81.6423 49.0334C81.6423 48.1985 81.5728 47.498 81.4336 46.9321C81.1367 45.7539 80.4641 45.1648 79.4158 45.1648C79.1003 45.1648 78.8174 45.2205 78.5669 45.3318C77.6484 45.7214 77.1892 46.9785 77.1892 49.103C77.1892 50.2163 77.3052 51.0791 77.5371 51.6914C77.8711 52.5542 78.5112 52.9856 79.4575 52.9856ZM90.6738 45.2761V44.9004H93.4849V45.2761H92.3716V53.1804L91.5784 53.3196L86.2207 47.0713V52.8743H87.0278C87.2227 52.8928 87.3479 53.0181 87.4036 53.25H84.5229V52.8743H85.6362V45.2761H84.5229V44.9004H86.8748L91.7871 50.6616V45.2761H90.6738Z" fill="#F90103"/>
</svg>
